<svg xmlns="http://www.w3.org/2000/svg" width="1600" height="720" viewBox="0 0 1600 720"><defs><linearGradient id="b" x2="1" y2="1"><stop stop-color="#111827"/><stop offset="1" stop-color="#2b124c"/></linearGradient><linearGradient id="a"><stop stop-color="#7c3aed"/><stop offset="1" stop-color="#22d3ee"/></linearGradient></defs><rect width="1600" height="720" rx="36" fill="url(#b)"/><g opacity=".08" stroke="#fff"><path d="M0 120h1600M0 240h1600M0 360h1600M0 480h1600M0 600h1600"/><path d="M200 0v720M400 0v720M600 0v720M800 0v720M1000 0v720M1200 0v720M1400 0v720"/></g><text x="110" y="150" fill="#fff" font-family="Inter,Segoe UI,Arial" font-size="66" font-weight="800">Data Structures &amp; Algorithms</text><text x="112" y="205" fill="#a5b4fc" font-family="Inter,Segoe UI,Arial" font-size="31">Kotlin implementations for learning, practice and interview fundamentals</text><g transform="translate(120 300)"><circle cx="0" cy="0" r="34" fill="url(#a)"/><circle cx="155" cy="0" r="34" fill="url(#a)"/><circle cx="310" cy="0" r="34" fill="url(#a)"/><circle cx="465" cy="0" r="34" fill="url(#a)"/><path d="M34 0h87M189 0h87M344 0h87" stroke="#67e8f9" stroke-width="8"/><text x="230" y="100" text-anchor="middle" fill="#dbeafe" font-family="Inter,Segoe UI,Arial" font-size="28" font-weight="700">GENERIC LINKED LIST</text></g><g transform="translate(770 280)"><rect width="680" height="250" rx="28" fill="#0f172a" stroke="#7dd3fc" stroke-opacity=".3"/><text x="45" y="55" fill="#f8fafc" font-family="ui-monospace,Consolas" font-size="25">sorting/</text><text x="75" y="100" fill="#93c5fd" font-family="ui-monospace,Consolas" font-size="23">bubble_sort</text><text x="75" y="140" fill="#c4b5fd" font-family="ui-monospace,Consolas" font-size="23">insertion_sort</text><text x="75" y="180" fill="#67e8f9" font-family="ui-monospace,Consolas" font-size="23">selection_sort</text><text x="75" y="220" fill="#f0abfc" font-family="ui-monospace,Consolas" font-size="23">merge_sort</text><path d="M390 80l45 45 80-95 55 125 62-75" fill="none" stroke="#22d3ee" stroke-width="10" stroke-linecap="round"/></g><text x="120" y="640" fill="#94a3b8" font-family="Inter,Segoe UI,Arial" font-size="25">Linked lists · Iterators · Merge sorted lists · Bubble · Insertion · Selection · Merge sort</text></svg>